<?xml version="1.0" encoding="iso-8859-1"?>
<!-- Generator: Adobe Illustrator 18.1.1, SVG Export Plug-In . SVG Version: 6.00 Build 0)  -->
<svg version="1.1" id="Capa_1" xmlns="http://www.w3.org/2000/svg" xmlns:xlink="http://www.w3.org/1999/xlink" x="0px" y="0px"
	 viewBox="0 0 76 76" style="enable-background:new 0 0 76 76;" xml:space="preserve">
<g id="_x37_7_Essential_Icons_4_">
	<path style="fill:#cfd9db" id="Briefcase" d="M74,16H48v-6c0-1.1-0.9-2-2-2H30c-1.1,0-2,0.9-2,2v6H2c-1.1,0-2,0.9-2,2v48c0,1.1,0.9,2,2,2h72
		c1.1,0,2-0.9,2-2V18C76,16.9,75.1,16,74,16z M32,12h12v4H32V12z M72,64H4V44h28v5.9c0,1.1,0.9,2,2,2h8c1.1,0,2-0.9,2-2V44h28V64z
		 M36,47.9v-12h4v12H36z M72,40H44v-6c0-1.1-0.9-2-2-2h-8c-1.1,0-2,0.9-2,2v6H4V20h68V40z"/>
</g>
<g>
</g>
<g>
</g>
<g>
</g>
<g>
</g>
<g>
</g>
<g>
</g>
<g>
</g>
<g>
</g>
<g>
</g>
<g>
</g>
<g>
</g>
<g>
</g>
<g>
</g>
<g>
</g>
<g>
</g>
</svg>
